<?xml version="1.0" encoding="iso-8859-1"?>
<!-- Generator: Adobe Illustrator 18.1.1, SVG Export Plug-In . SVG Version: 6.00 Build 0)  -->
<svg version="1.1" id="Capa_1" xmlns="http://www.w3.org/2000/svg" xmlns:xlink="http://www.w3.org/1999/xlink" x="0px" y="0px"
	 viewBox="0 0 15 15" style="enable-background:new 0 0 15 15;" xml:space="preserve">
<g>
	<g>
		<path style="fill:#010002;" d="M7.5,0C3.358,0,0,3.358,0,7.5C0,11.643,3.358,15,7.5,15c4.143,0,7.5-3.357,7.5-7.5
			C15,3.358,11.643,0,7.5,0z M11.098,9.1c-0.195,0.195-0.512,0.195-0.707,0L7.5,6.209L4.609,9.1c-0.195,0.195-0.512,0.195-0.707,0
			c-0.195-0.194-0.195-0.512,0-0.707L7.145,5.15C7.243,5.052,7.371,5.004,7.5,5.004S7.757,5.052,7.855,5.15l3.243,3.243
			C11.293,8.588,11.293,8.904,11.098,9.1z"/>
	</g>
</g>
<g>
</g>
<g>
</g>
<g>
</g>
<g>
</g>
<g>
</g>
<g>
</g>
<g>
</g>
<g>
</g>
<g>
</g>
<g>
</g>
<g>
</g>
<g>
</g>
<g>
</g>
<g>
</g>
<g>
</g>
</svg>
